<svg width="85" height="70" viewBox="0 0 85 70" fill="none" xmlns="http://www.w3.org/2000/svg">
<path d="M19.8579 54.764C19.1568 54.6437 18.5959 54.5233 17.8947 54.2827C17.1936 54.042 16.6327 53.9217 16.0718 53.681C14.8097 53.1996 13.6879 52.5979 12.5661 51.8759C10.3225 50.5522 8.49954 48.7471 7.09727 46.581C5.69501 44.5353 4.85365 42.1285 4.71342 39.8421C4.57319 38.6387 4.71342 37.5557 4.85365 36.3523C4.99387 35.7506 5.1341 35.2693 5.27433 34.6676C5.41455 34.0659 5.69501 33.5845 5.83523 32.9828L5.97546 34.6676C5.97546 35.2693 6.11569 35.7506 6.25591 36.3523C6.39614 37.4354 6.67659 38.5184 6.95705 39.4811C7.51795 41.5268 8.35932 43.4523 9.62136 45.2573C10.8834 47.0624 12.2857 48.7471 14.1086 50.3115C14.95 51.0335 15.9316 51.7556 16.9131 52.4776C17.3338 52.8386 17.8947 53.1996 18.4556 53.5606L19.8579 54.764ZM19.4372 59.0962C19.0165 59.3369 18.4556 59.4572 17.8947 59.5775C17.3338 59.6979 16.9131 59.8182 16.3522 59.8182C15.3707 59.9386 14.2488 60.0589 13.127 59.9386C11.0236 59.8182 8.78 59.3369 6.95705 58.4945C4.99387 57.6521 3.31115 56.3284 2.18934 54.764C1.62843 54.042 1.06752 53.1996 0.646845 52.3573C0.506618 51.9962 0.366391 51.5149 0.226164 51.0335C0.226164 50.6725 0.0859375 50.3115 0.0859375 49.8302C0.506618 50.1912 0.787071 50.5522 1.06752 50.7929C1.4882 51.1539 1.76866 51.5149 2.04911 51.7556C2.75025 52.3573 3.31115 52.959 4.01229 53.4403C5.41455 54.5233 6.81682 55.4861 8.49954 56.2081C10.042 56.9301 11.865 57.5318 13.5477 58.0131C14.3891 58.2538 15.3707 58.3742 16.3522 58.6148C16.7729 58.7352 17.3338 58.7352 17.7545 58.8555C18.4556 58.9759 18.8763 58.9758 19.4372 59.0962ZM51.1285 0.611937C51.8296 0.732275 52.3905 0.972951 53.0916 1.21363C53.7928 1.4543 54.3537 1.69498 54.9146 1.93565C56.1766 2.53734 57.2984 3.13903 58.4203 3.86106C60.6639 5.30512 62.4868 7.23052 63.7489 9.39661C65.0109 11.5627 65.712 13.9695 65.712 16.2559C65.712 17.4593 65.5718 18.5423 65.2914 19.7457C65.1511 20.3474 65.0109 20.8287 64.7305 21.4304C64.45 22.0321 64.3098 22.5134 64.0293 22.9948L63.8891 21.3101C63.8891 20.7084 63.8891 20.227 63.7489 19.6253L63.3282 16.3762C62.9075 14.3305 62.0662 12.2847 60.9443 10.3593C59.8225 8.4339 58.4203 6.74917 56.7375 5.18478C55.8962 4.34241 54.9146 3.62039 54.0732 2.77802C53.6525 2.41701 53.0916 2.05599 52.5307 1.69498L51.1285 0.611937ZM63.3282 0.130585C63.8891 0.250923 64.3098 0.371261 64.7305 0.611937C65.1511 0.732275 65.712 0.972951 66.1327 1.21363C66.9741 1.69498 67.8155 2.17633 68.6568 2.77802C70.1993 3.9814 71.4613 5.42545 72.1625 7.11019C73.0038 8.79492 73.2843 10.6 73.0038 12.4051C72.8636 13.2474 72.5832 14.0898 72.3027 14.9322C72.1625 15.2932 71.882 15.7745 71.7418 16.1355C71.4613 16.4965 71.3211 16.8576 70.9004 17.2186V16.0152V14.8118C70.9004 13.9695 70.7602 13.2474 70.7602 12.5254C70.4798 10.961 70.1993 9.51695 69.4982 8.19323C68.797 6.74917 67.9557 5.54579 66.9741 4.22208C66.4132 3.62039 65.8523 2.89836 65.2914 2.29667C65.0109 1.93565 64.7305 1.69498 64.3098 1.33396C64.0293 0.732275 63.6086 0.371261 63.3282 0.130585Z" fill="#42ADE2"/>
<path d="M11.3045 18.0609C8.5 19.144 7.51841 22.0321 8.78045 24.4389L26.449 56.0877L36.2649 52.1166L18.5963 20.3474C17.3343 17.9406 14.1091 16.8576 11.3045 18.0609ZM57.7196 43.2116L68.0964 38.9998L47.9037 2.89836C46.5014 0.491606 43.136 -0.591436 40.1912 0.611944C37.3867 1.81532 36.1247 4.70343 37.5269 7.23053L57.7196 43.2116Z" fill="#FFDD67"/>
<path d="M40.3306 0.491608C40.0502 0.611946 39.7697 0.732284 39.4893 0.97296C42.1536 0.37127 44.9581 1.45431 46.2201 3.6204L66.4128 39.7218L68.2357 38.9998L48.0431 2.89837C46.6408 0.371271 43.2754 -0.711771 40.3306 0.491608Z" fill="#EBA352"/>
<path d="M36.2643 51.9963L47.0618 47.5438L26.4484 10.7203C25.0462 8.19325 21.4003 6.98987 18.4555 8.19325C15.5108 9.39663 14.2487 12.5254 15.651 15.0525L36.2643 51.9963Z" fill="#FFDD67"/>
<path d="M18.4556 8.31357C18.1752 8.4339 17.8947 8.55424 17.6143 8.79492C20.2786 8.19323 23.3636 9.27627 24.6256 11.5627L37.3862 34.5472L40.4712 36.1116L26.4485 10.8407C25.0463 8.19323 21.5406 7.11019 18.4556 8.31357Z" fill="#EBA352"/>
<path d="M45.3795 44.6556L56.177 40.2031L35.5637 3.37971C34.1614 0.852617 30.5155 -0.350763 27.5708 0.972954C24.626 2.17633 23.364 5.30512 24.7662 7.83222L45.3795 44.6556Z" fill="#FFDD67"/>
<path d="M27.5706 0.852628C27.2901 0.972966 27.0097 1.21364 26.7292 1.33398C29.3935 0.73229 32.4785 1.81533 33.7405 4.10175L48.1839 30.0948L51.2689 31.6591L35.5635 3.37973C34.1612 0.73229 30.5153 -0.350751 27.5706 0.852628ZM11.3043 18.061C11.0238 18.1813 10.7433 18.3016 10.4629 18.5423C12.987 17.9406 15.6513 19.0237 16.7731 21.1897L27.2901 40.0828L30.3751 41.6472L18.596 20.4677C17.334 17.9406 14.1088 16.8576 11.3043 18.061Z" fill="#EBA352"/>
<path d="M82.5392 14.4508C78.7531 11.9237 72.5831 14.6915 69.4981 23.3558C67.3947 29.3727 67.1143 31.1778 62.627 32.9828L60.1029 28.5303C60.1029 28.5303 20.2785 45.0166 21.821 47.6641C21.821 47.6641 26.5887 60.4199 34.7219 66.3165C46.7814 75.2215 74.967 65.7148 76.229 42.7302C76.9301 29.3727 86.6058 17.2186 82.5392 14.4508Z" fill="#FFDD67"/>
<path d="M82.539 14.4508C81.8379 13.9694 80.9965 13.7288 80.1552 13.6084C80.2954 13.7288 80.5758 13.7288 80.7161 13.8491C84.9229 16.6169 80.5758 22.9948 78.192 28.771C76.2288 33.3439 74.5461 38.037 74.8265 42.6099C75.9484 62.586 52.5305 72.0927 38.5078 68.4825C52.25 73.4164 77.7713 64.03 76.6495 43.2116C76.369 38.6387 77.9115 34.1862 80.0149 29.3727C82.2586 23.5965 86.6056 17.2186 82.539 14.4508Z" fill="#EBA352"/>
<path d="M63.8884 32.5015C55.1944 33.3438 42.4337 44.0539 51.4082 55.7267C44.8176 43.9336 55.615 35.9913 62.4862 33.2235C63.1873 32.7421 63.8884 32.5015 63.8884 32.5015Z" fill="#EBA352"/>
</svg>
