<svg width="41" height="36" viewBox="0 0 41 36" fill="none" xmlns="http://www.w3.org/2000/svg">
<path d="M38.9132 28.182C38.2143 27.8945 37.4489 27.6789 36.6501 27.4993C35.452 27.2118 34.1541 27.0321 32.8562 26.9243L32.8229 26.9602V26.6368C34.1541 26.2056 35.4187 25.4151 36.4504 24.3011C37.3823 23.295 38.1477 22.0013 38.6469 20.4202C38.7801 20.3843 38.8799 20.2765 38.9798 20.1687C39.9116 19.1625 40.4108 15.8925 40.1113 15.4253C40.2444 14.527 40.7103 10.4305 39.4457 6.76518C39.4124 6.69331 39.3791 6.58551 39.3458 6.51364C39.2793 6.33397 39.2127 6.19023 39.1462 6.01056C38.9798 5.61528 38.7801 5.22 38.5804 4.82473C38.5471 4.75286 38.4805 4.68099 38.4473 4.57319C38.2476 4.28571 38.0479 3.9623 37.8482 3.71076C37.7484 3.56703 37.6153 3.42329 37.5154 3.27955C36.0211 1.59423 33.7614 0.408401 30.3768 0.404808C26.9955 0.408401 25.398 1.59423 23.9037 3.27955C23.8039 3.42329 23.6708 3.56703 23.5709 3.71076C23.3712 3.9623 23.1716 4.28571 22.9719 4.57319C22.9386 4.68099 22.872 4.75286 22.8388 4.82473C22.6391 5.22 22.4394 5.61528 22.273 6.01056C22.2064 6.19023 22.1399 6.33397 22.0733 6.51364C22.04 6.58551 22.0067 6.69331 21.9735 6.76518C20.7088 10.4305 21.1747 14.527 21.3079 15.4253C21.0083 15.8925 21.5075 19.1625 22.4394 20.1687C22.5392 20.2765 22.6391 20.3843 22.7722 20.4202C23.2714 22.0013 24.0368 23.295 24.9687 24.3011C26.0004 25.4151 26.5994 26.2056 27.9307 26.6368V26.9602C25.0685 27.2082 22.3695 27.8909 20.3161 29.0049C19.4075 29.4972 18.6254 30.0722 18.0131 30.7333C17.1145 31.7036 16.582 32.8535 16.582 34.219V35.4048H23.8239H40.484V28.9043C39.9915 28.6384 39.4656 28.3976 38.9132 28.182Z" fill="#1798F3"/>
<path d="M20.3119 29.0049C19.7727 28.6995 19.187 28.4228 18.5613 28.182C17.8624 27.8945 17.097 27.6789 16.2983 27.4993C15.1002 27.2118 13.8022 27.0321 12.5043 26.9243L12.471 26.9602V26.6368C13.8022 26.2056 15.0669 25.4151 16.0986 24.3011C17.0304 23.295 17.7959 22.0013 18.2951 20.4202C18.4282 20.3843 18.528 20.2765 18.6279 20.1687C19.5597 19.1625 20.0589 15.8925 19.7594 15.4253C19.8925 14.527 20.3585 10.4305 19.0938 6.76518C19.0605 6.69331 19.0272 6.58551 18.994 6.51364C18.9274 6.33397 18.8608 6.19023 18.7943 6.01056C18.6279 5.61528 18.4282 5.22 18.2285 4.82473C18.1952 4.75286 18.1287 4.68099 18.0954 4.57319C17.8957 4.28571 17.696 3.9623 17.4963 3.71076C17.3965 3.56703 17.2634 3.42329 17.1635 3.27955C15.6693 1.59423 13.4095 0.408401 10.0249 0.404808C6.6436 0.408401 5.04614 1.59423 3.55185 3.27955C3.45201 3.42329 3.31889 3.56703 3.21905 3.71076C3.01937 3.9623 2.81968 4.28571 2.62 4.57319C2.58672 4.68099 2.52016 4.75286 2.48688 4.82473C2.2872 5.22 2.08751 5.61528 1.92111 6.01056C1.85455 6.19023 1.78799 6.33397 1.72143 6.51364C1.68815 6.58551 1.65487 6.69331 1.62159 6.76518C0.356933 10.4305 0.822859 14.527 0.95598 15.4253C0.656457 15.8925 1.15566 19.1625 2.08751 20.1687C2.18736 20.2765 2.2872 20.3843 2.42032 20.4202C2.91952 22.0013 3.68497 23.295 4.61683 24.3011C5.64852 25.4151 6.24757 26.2056 7.57878 26.6368V26.9602C4.95296 27.1902 2.46026 27.7831 0.483398 28.739V35.4048H16.5778H23.8196V34.219C23.823 31.9012 22.4252 30.2015 20.3119 29.0049Z" fill="#1976D2"/>
</svg>
