<svg width="75" height="60" viewBox="0 0 75 60" fill="none" xmlns="http://www.w3.org/2000/svg">
<path d="M17.6271 47.0584C17.002 46.955 16.5019 46.8516 15.8769 46.6448C15.2518 46.438 14.7517 46.3346 14.2517 46.1277C13.1265 45.7141 12.1264 45.1971 11.1263 44.5767C9.12607 43.4393 7.50088 41.8882 6.25074 40.027C5.00059 38.2691 4.2505 36.2011 4.12549 34.2364C4.00047 33.2024 4.12549 32.2717 4.2505 31.2377C4.37552 30.7207 4.50053 30.3071 4.62554 29.7901C4.75056 29.2731 5.00059 28.8594 5.1256 28.3424L5.25062 29.7901C5.25062 30.3071 5.37563 30.7207 5.50065 31.2377C5.62566 32.1683 5.87569 33.099 6.12572 33.9262C6.62578 35.684 7.37587 37.3385 8.501 38.8895C9.62613 40.4406 10.8763 41.8882 12.5015 43.2325C13.2516 43.8529 14.1267 44.4733 15.0018 45.0937C15.3768 45.4039 15.8769 45.7141 16.3769 46.0243L17.6271 47.0584ZM17.252 50.7809C16.877 50.9877 16.3769 51.0911 15.8769 51.1945C15.3768 51.2979 15.0018 51.4013 14.5017 51.4013C13.6266 51.5047 12.6265 51.6081 11.6264 51.5047C9.75115 51.4013 7.75091 50.9877 6.12572 50.2639C4.37552 49.54 2.87534 48.4026 1.87522 47.0584C1.37516 46.438 0.875103 45.7141 0.500059 44.9903C0.375044 44.6801 0.250029 44.2665 0.125015 43.8529C0.125015 43.5427 0 43.2325 0 42.8189C0.375044 43.1291 0.625074 43.4393 0.875103 43.6461C1.25015 43.9563 1.50018 44.2665 1.75021 44.4733C2.37528 44.9903 2.87534 45.5073 3.50041 45.9209C4.75056 46.8516 6.00071 47.6788 7.50088 48.2992C8.87605 48.9196 10.5012 49.4366 12.0014 49.8503C12.7515 50.0571 13.6266 50.1605 14.5017 50.3673C14.8768 50.4707 15.3768 50.4707 15.7519 50.5741C16.3769 50.6775 16.752 50.6775 17.252 50.7809ZM45.5054 0.527016C46.1304 0.630419 46.6305 0.837225 47.2556 1.04403C47.8806 1.25084 48.3807 1.45764 48.8808 1.66445C50.0059 2.18146 51.006 2.69848 52.0061 3.3189C54.0064 4.55973 55.6316 6.21418 56.7567 8.07544C57.8818 9.93669 58.5069 12.0048 58.5069 13.9694C58.5069 15.0034 58.3819 15.9341 58.1318 16.9681C58.0068 17.4851 57.8818 17.8987 57.6318 18.4157C57.3818 18.9328 57.2567 19.3464 57.0067 19.76L56.8817 18.3123C56.8817 17.7953 56.8817 17.3817 56.7567 16.8647L56.3816 14.0728C56.0066 12.315 55.2565 10.5571 54.2564 8.90266C53.2563 7.24821 52.0061 5.80057 50.506 4.45633C49.7559 3.73251 48.8808 3.11209 48.1307 2.38827C47.7556 2.07806 47.2556 1.76785 46.7555 1.45764L45.5054 0.527016ZM56.3816 0.113403C56.8817 0.216806 57.2567 0.320209 57.6318 0.527016C58.0068 0.630419 58.5069 0.837225 58.8819 1.04403C59.632 1.45764 60.3821 1.87125 61.1322 2.38827C62.5074 3.4223 63.6325 4.66314 64.2576 6.11078C65.0077 7.55842 65.2577 9.10947 65.0077 10.6605C64.8826 11.3843 64.6326 12.1082 64.3826 12.832C64.2576 13.1422 64.0075 13.5558 63.8825 13.866C63.6325 14.1762 63.5075 14.4864 63.1324 14.7966V13.7626V12.7286C63.1324 12.0048 63.0074 11.3843 63.0074 10.7639C62.7574 9.41967 62.5074 8.17884 61.8823 7.04141C61.2572 5.80057 60.5071 4.76654 59.632 3.62911C59.132 3.11209 58.6319 2.49167 58.1318 1.97466C57.8818 1.66445 57.6318 1.45764 57.2567 1.14743C57.0067 0.630418 56.6317 0.320209 56.3816 0.113403Z" fill="#42ADE2"/>
<path d="M10.0012 15.5204C7.50091 16.451 6.6258 18.9327 7.75094 21.0008L23.5028 48.1958L32.2538 44.7835L16.502 17.4851C15.3768 15.417 12.5015 14.4864 10.0012 15.5204ZM51.3811 37.1316L60.6322 33.5125L42.63 2.49161C41.3799 0.42355 38.3795 -0.507077 35.7542 0.526953C33.2539 1.56098 32.1288 4.04266 33.379 6.21412L51.3811 37.1316Z" fill="#FFDD67"/>
<path d="M35.879 0.422425C35.629 0.525828 35.3789 0.629231 35.1289 0.836037C37.5042 0.319022 40.0045 1.24965 41.1296 3.1109L59.1317 34.1318L60.7569 33.5114L42.7548 2.49049C41.5047 0.319022 38.5043 -0.611605 35.879 0.422425Z" fill="#EBA352"/>
<path d="M32.2538 44.6775L41.88 40.8516L23.5028 9.21028C22.2527 7.03882 19.0023 6.00479 16.377 7.03882C13.7517 8.07285 12.6265 10.7613 13.8767 12.9328L32.2538 44.6775Z" fill="#FFDD67"/>
<path d="M16.377 7.14388C16.127 7.24728 15.877 7.35069 15.627 7.55749C18.0022 7.04048 20.7526 7.9711 21.8777 9.93576L33.254 29.6857L36.0044 31.03L23.5029 9.31534C22.2527 7.04048 19.1274 6.10985 16.377 7.14388Z" fill="#EBA352"/>
<path d="M40.3796 38.3705L50.0057 34.5446L31.6285 2.90328C30.3784 0.731812 27.128 -0.302218 24.5027 0.835215C21.8774 1.86925 20.7523 4.55772 22.0024 6.72919L40.3796 38.3705Z" fill="#FFDD67"/>
<path d="M24.503 0.732746C24.253 0.836149 24.003 1.04295 23.7529 1.14636C26.1282 0.629343 28.8785 1.55997 30.0037 3.52463L42.8802 25.8597L45.6305 27.2039L31.6289 2.90421C30.3787 0.629343 27.1283 -0.301284 24.503 0.732746ZM10.0013 15.5194C9.75128 15.6228 9.50125 15.7262 9.25122 15.933C11.5015 15.416 13.8768 16.3466 14.8769 18.2079L24.253 34.4421L27.0033 35.7864L16.5021 17.5874C15.3769 15.416 12.5016 14.4853 10.0013 15.5194Z" fill="#EBA352"/>
<path d="M73.5087 12.4171C70.1333 10.2457 64.6327 12.6239 61.8823 20.069C60.0071 25.2391 59.7571 26.7901 55.7566 28.3412L53.5063 24.5153C53.5063 24.5153 18.0022 38.6815 19.3773 40.9564C19.3773 40.9564 23.6278 51.9171 30.8787 56.9838C41.6299 64.6357 66.7579 56.4668 67.883 36.7168C68.5081 25.2391 77.1341 14.7954 73.5087 12.4171Z" fill="#FFDD67"/>
<path d="M73.509 12.416C72.8839 12.0023 72.1339 11.7955 71.3838 11.6921C71.5088 11.7955 71.7588 11.7955 71.8838 11.8989C75.6343 14.2772 71.7588 19.7576 69.6336 24.7209C67.8834 28.6502 66.3832 32.683 66.6332 36.6123C67.6333 53.7772 46.7559 61.946 34.2544 58.8439C46.5058 63.0834 69.2585 55.018 68.2584 37.1293C68.0084 33.2 69.3835 29.3741 71.2588 25.2379C73.259 20.2746 77.1345 14.7942 73.509 12.416Z" fill="#EBA352"/>
<path d="M56.882 27.9272C49.1311 28.6511 37.7548 37.8539 45.7557 47.884C39.88 37.7505 49.5061 30.9259 55.6319 28.5477C56.2569 28.1341 56.882 27.9272 56.882 27.9272Z" fill="#EBA352"/>
</svg>
