<svg width="78" height="76" viewBox="0 0 78 76" fill="none" xmlns="http://www.w3.org/2000/svg">
<path d="M18.2903 59.2029C17.6484 59.0747 17.1349 58.9465 16.493 58.69C15.8511 58.4336 15.3375 58.3054 14.824 58.049C13.6686 57.5362 12.6415 56.8951 11.6145 56.1258C9.56035 54.7155 7.89139 52.7924 6.60757 50.4846C5.32375 48.305 4.55346 45.7408 4.42508 43.3048C4.29669 42.0227 4.42508 40.8688 4.55346 39.5867C4.68184 38.9457 4.81022 38.4328 4.9386 37.7918C5.06699 37.1507 5.32375 36.6379 5.45213 35.9968L5.58051 37.7918C5.58051 38.4328 5.70889 38.9457 5.83728 39.5867C5.96566 40.7406 6.22242 41.8945 6.47919 42.9202C6.99271 45.0998 7.763 47.1511 8.91844 49.0743C10.0739 50.9974 11.3577 52.7924 13.0267 54.4591C13.7969 55.2284 14.6956 55.9976 15.5943 56.7669C15.9794 57.1515 16.493 57.5362 17.0065 57.9208L18.2903 59.2029ZM17.9052 63.8185C17.52 64.0749 17.0065 64.2031 16.493 64.3313C15.9794 64.4595 15.5943 64.5877 15.0808 64.5877C14.1821 64.7159 13.155 64.8441 12.128 64.7159C10.2023 64.5877 8.14815 64.0749 6.47919 63.1774C4.68184 62.2799 3.14126 60.8696 2.1142 59.2029C1.60068 58.4336 1.08715 57.5362 0.702004 56.6387C0.573622 56.2541 0.44524 55.7412 0.316858 55.2284C0.316858 54.8437 0.188477 54.4591 0.188477 53.9463C0.573622 54.3309 0.830386 54.7155 1.08715 54.972C1.47229 55.3566 1.72906 55.7412 1.98582 55.9976C2.62773 56.6387 3.14126 57.2797 3.78317 57.7926C5.06699 58.9465 6.3508 59.9722 7.89139 60.7414C9.30359 61.5107 10.9725 62.1517 12.5131 62.6646C13.2834 62.921 14.1821 63.0492 15.0808 63.3056C15.4659 63.4338 15.9794 63.4338 16.3646 63.562C17.0065 63.6902 17.3916 63.6902 17.9052 63.8185ZM46.9195 1.50829C47.5614 1.6365 48.0749 1.89292 48.7168 2.14934C49.3587 2.40577 49.8722 2.66219 50.3858 2.91861C51.5412 3.55966 52.5683 4.20071 53.5953 4.96997C55.6494 6.50849 57.3184 8.55986 58.4738 10.8676C59.6293 13.1754 60.2712 15.7396 60.2712 18.1756C60.2712 19.4577 60.1428 20.6116 59.886 21.8937C59.7576 22.5348 59.6293 23.0476 59.3725 23.6887C59.1157 24.3297 58.9873 24.8426 58.7306 25.3554L58.6022 23.5605C58.6022 22.9194 58.6022 22.4066 58.4738 21.7655L58.0887 18.3038C57.7035 16.1243 56.9332 13.9447 55.9062 11.8933C54.8791 9.84196 53.5953 8.04701 52.0547 6.38028C51.2844 5.48281 50.3858 4.71355 49.6155 3.81608C49.2303 3.43145 48.7168 3.04682 48.2033 2.66219L46.9195 1.50829ZM58.0887 0.995453C58.6022 1.12366 58.9873 1.25187 59.3725 1.50829C59.7576 1.6365 60.2712 1.89292 60.6563 2.14934C61.4266 2.66219 62.1969 3.17503 62.9672 3.81608C64.3794 5.09818 65.5348 6.6367 66.1767 8.43164C66.947 10.2266 67.2038 12.1497 66.947 14.0729C66.8186 14.9704 66.5619 15.8678 66.3051 16.7653C66.1767 17.1499 65.92 17.6628 65.7916 18.0474C65.5348 18.432 65.4064 18.8167 65.0213 19.2013V17.9192V16.6371C65.0213 15.7396 64.8929 14.9704 64.8929 14.2011C64.6361 12.5344 64.3794 10.9958 63.7375 9.58554C63.0956 8.04701 62.3253 6.76491 61.4266 5.3546C60.9131 4.71355 60.3995 3.94429 59.886 3.30324C59.6293 2.91861 59.3725 2.66219 58.9873 2.27755C58.7306 1.6365 58.3454 1.25187 58.0887 0.995453Z" fill="#42ADE2"/>
<path d="M10.4586 20.0988C7.89098 21.2527 6.99231 24.3297 8.14774 26.8939L24.3238 60.6132L33.3106 56.3823L17.1345 22.5348C15.979 19.9706 13.0263 18.8167 10.4586 20.0988ZM52.953 46.8947L62.4532 42.4074L43.9663 3.94428C42.6824 1.38008 39.6013 0.226185 36.9053 1.50829C34.3376 2.79039 33.1822 5.86743 34.466 8.55985L52.953 46.8947Z" fill="#FFDD67"/>
<path d="M37.034 1.38009C36.7772 1.5083 36.5204 1.63651 36.2637 1.89293C38.7029 1.25188 41.2706 2.40577 42.426 4.71356L60.913 43.1766L62.5819 42.4074L44.095 3.9443C42.8111 1.25188 39.73 0.0979893 37.034 1.38009Z" fill="#EBA352"/>
<path d="M33.3106 56.2541L43.196 51.5103L24.3239 12.278C23.0401 9.58556 19.7022 8.30346 17.0062 9.58556C14.3101 10.8677 13.1547 14.2011 14.4385 16.8935L33.3106 56.2541Z" fill="#FFDD67"/>
<path d="M17.0066 9.71375C16.7499 9.84196 16.4931 9.97018 16.2363 10.2266C18.6756 9.58554 21.5 10.7394 22.6554 13.1754L34.3382 37.6636L37.1626 39.3303L24.3244 12.4062C23.0406 9.58554 19.831 8.43165 17.0066 9.71375Z" fill="#EBA352"/>
<path d="M41.6554 48.4332L51.5408 43.6895L32.6687 4.45714C31.3848 1.76473 28.0469 0.482627 25.3509 1.89294C22.6549 3.17504 21.4994 6.50851 22.7833 9.20092L41.6554 48.4332Z" fill="#FFDD67"/>
<path d="M25.3511 1.76472C25.0943 1.89293 24.8375 2.14935 24.5808 2.27756C27.02 1.63651 29.8444 2.7904 30.9999 5.22639L44.2232 32.9198L47.0476 34.5865L32.6688 4.45713C31.385 1.63651 28.0471 0.482617 25.3511 1.76472ZM10.4588 20.0988C10.202 20.227 9.94524 20.3552 9.68848 20.6116C11.9993 19.9706 14.4386 21.1245 15.4657 23.4322L25.0943 43.5612L27.9187 45.228L17.1346 22.663C15.9792 19.9706 13.0264 18.8167 10.4588 20.0988Z" fill="#EBA352"/>
<path d="M75.6772 16.2525C72.2109 13.56 66.5621 16.5089 63.7377 25.74C61.8119 32.1505 61.5552 34.0737 57.447 35.9968L55.1361 31.2531C55.1361 31.2531 18.6756 48.8179 20.0878 51.6385C20.0878 51.6385 24.4528 65.2288 31.899 71.5111C42.9398 80.9986 68.7446 70.87 69.9 46.3819C70.5419 32.1505 79.4002 19.2013 75.6772 16.2525Z" fill="#FFDD67"/>
<path d="M75.6771 16.2525C75.0352 15.7396 74.2649 15.4832 73.4946 15.355C73.623 15.4832 73.8798 15.4832 74.0081 15.6114C77.8596 18.5602 73.8798 25.3554 71.6973 31.5095C69.8999 36.3815 68.3593 41.3817 68.6161 46.2536C69.6432 67.5365 48.2034 77.6651 35.3652 73.8188C47.9466 79.0755 71.3121 69.0751 70.2851 46.8947C70.0283 42.0227 71.4405 37.2789 73.3662 32.1505C75.4203 25.9964 79.4002 19.2013 75.6771 16.2525Z" fill="#EBA352"/>
<path d="M58.6019 35.4839C50.6422 36.3814 38.9595 47.7921 47.1759 60.2285C41.142 47.6639 51.0274 39.202 57.3181 36.2532C57.96 35.7404 58.6019 35.4839 58.6019 35.4839Z" fill="#EBA352"/>
</svg>
