<svg width="72" height="53" viewBox="0 0 72 53" fill="none" xmlns="http://www.w3.org/2000/svg">
<path d="M68.7343 0H2.54571C1.13762 0 0 1.06797 0 2.38987V50.1873C0 51.5092 1.13762 52.5771 2.54571 52.5771H68.7343C70.1424 52.5771 71.28 51.5092 71.28 50.1873V2.38987C71.28 1.06797 70.1424 0 68.7343 0ZM65.5521 8.27492V47.1999H5.72786V8.27492L3.53218 6.66923L6.65863 2.89772L10.0635 5.38468H61.2244L64.6293 2.89772L67.7558 6.66923L65.5521 8.27492ZM61.2244 5.37721L35.64 24.0481L10.0556 5.37721L6.65068 2.89025L3.52422 6.66176L5.7199 8.26746L32.8954 28.1034C33.6769 28.6734 34.6384 28.9828 35.6281 28.9828C36.6177 28.9828 37.5792 28.6734 38.3607 28.1034L65.5521 8.27492L67.7478 6.66923L64.6214 2.89772L61.2244 5.37721Z" fill="black"/>
</svg>
