<svg width="40" height="48" viewBox="0 0 40 48" fill="none" xmlns="http://www.w3.org/2000/svg">
<path d="M27.3861 43.6953C27.3861 41.0508 27.0971 23 27.0971 23C27.0971 21.5625 27.058 21.2969 27.5854 21.6953C28.1127 22.0938 28.6322 23.6094 32.3744 24.6172C35.1752 25.3711 38.6908 24.2227 39.5971 22.5117C39.9994 21.7539 40.0697 20.1875 38.7611 19.6055C37.5072 19.0469 34.9838 18.9883 32.8744 17.3906C30.2924 15.4336 30.1947 13.8086 28.5385 10.7852C27.2143 8.37109 23.976 6.50781 23.2807 5.17188C22.7768 4.20312 22.8002 2.96484 22.851 1.71875C22.8705 1.24219 22.558 0.816406 22.0932 0.699219C20.9838 0.421875 18.6635 0 14.7885 0C10.9604 0 8.65177 0.410156 7.52677 0.6875C7.0463 0.804688 6.72208 1.25391 6.76896 1.74609C6.89396 3.05859 7.06583 4.46094 6.68302 5.45703C6.15567 6.82812 4.41349 8.73047 2.99161 11.1289C-0.332608 16.7422 0.0384868 22.6445 0.319737 26.0273C0.538487 28.6445 2.16349 31.9336 4.31583 32.4219C5.41739 32.6719 6.19083 32.3906 6.99552 31.7227C7.18302 31.5664 7.46817 31.7031 7.54239 31.9336C7.86661 32.9336 8.5463 34.4727 10.5932 34.6094C12.265 34.7227 12.9721 33.7422 13.5619 33.2109C13.7377 33.0508 13.9252 33.1836 13.9994 33.4102C14.3236 34.3672 15.5229 36.0273 17.3471 35.9688C19.4604 35.9023 20.2494 33.418 20.6283 33.1133C21.0072 32.8125 21.1791 34.3242 21.1947 34.5508C21.1947 34.5508 21.6557 40.4023 22.0697 42.9219C22.4604 45.3086 23.0932 47.5352 25.4096 47.1289C26.3979 46.957 27.3861 46.3398 27.3861 43.6953Z" fill="#FFDD67"/>
<path d="M19.8747 29.418C19.8747 29.418 19.4919 30.4961 17.6012 30.586C15.7809 30.6719 15.1247 29.2032 14.2028 29.043C12.9489 28.8242 12.8005 29.7188 11.0583 29.625C9.38639 29.5352 9.05827 28.4063 7.87858 28.2461C7.12468 28.1407 6.46061 28.9532 4.64421 28.8086C3.8903 28.75 1.79264 28.0391 1.16764 26.6407C0.937175 26.1211 0.132487 25.5703 0.632487 27.711C1.0153 29.3477 2.30046 31.9258 4.2653 32.4102C4.28483 32.4141 4.30046 32.418 4.31999 32.4219C5.42155 32.6719 6.19499 32.3907 6.99968 31.7227C7.18718 31.5664 7.47233 31.7032 7.54655 31.9336C7.87077 32.9336 8.55046 34.4727 10.5973 34.6094C12.2692 34.7227 12.9762 33.7422 13.5661 33.211C13.7419 33.0508 13.9294 33.1836 14.0036 33.4102C14.3278 34.3672 15.527 36.0274 17.3512 35.9688C19.4645 35.9024 20.2614 34.293 20.6325 33.1172C20.6637 33.0352 20.3083 29.9258 19.8747 29.418Z" fill="#FFB300"/>
<path d="M27.8662 22.0039C27.8662 22.0039 26.1592 19.5312 26.1592 21.0937C26.1592 21.9687 26.874 42.6797 26.6592 44.5195C26.3857 46.8515 24.6592 47.1719 24.6592 47.1719C24.6592 47.1719 27.3467 47.6016 27.8779 44.3203C28.2725 41.875 27.7295 24.3203 27.8662 22.0039Z" fill="#EDA600"/>
<path d="M12.9756 29.6797C12.9053 28.7383 13.1475 28.3438 13.6748 28.2461C14.2021 28.1485 14.4131 28.7188 14.4209 29.7891C14.4404 32.7813 13.4404 34.1446 11.5029 34.5235C11.5029 34.5196 13.2607 33.5352 12.9756 29.6797Z" fill="#EDA600"/>
<path d="M6.28418 28.7617C6.21387 27.8203 6.57325 27.4336 7.10059 27.332C7.62793 27.2305 7.93653 28.0156 7.9209 29.0859C7.86622 32.3398 6.15918 32.6484 4.46778 32.5C4.46387 32.5078 6.56934 32.6211 6.28418 28.7617Z" fill="#EDA600"/>
<path d="M19.374 30.2461C19.3428 29.3945 19.6592 28.9101 20.2725 28.8437C20.8857 28.7773 21.0459 29.4375 21.0889 30.0703C21.3232 33.5586 19.8779 35.7812 17.7412 35.9336C17.7412 35.9336 19.5459 34.6836 19.374 30.2461Z" fill="#EDA600"/>
<path d="M23.2763 5.17188C22.7724 4.20312 22.7959 2.96484 22.8467 1.71875C22.8623 1.38281 22.706 1.07422 22.456 0.878906C22.456 0.878906 21.3623 3.58203 22.2412 5.71094C22.6748 6.76953 23.5263 7.48047 24.4443 8.40234C25.6709 9.64062 27.1162 9.79297 28.5927 13.5312C29.3427 15.4336 30.1123 16.6875 31.667 18.0781C33.5146 19.7344 36.1865 20.1406 37.3076 20.0664C38.1513 20.0117 39.3427 19.8633 38.7607 19.6055C37.5068 19.0469 34.9834 18.9883 32.874 17.3906C30.292 15.4336 30.1982 13.8086 28.5381 10.7812C27.2138 8.36719 23.9756 6.50781 23.2763 5.17188Z" fill="#EDA600"/>
</svg>
