<svg width="62" height="53" viewBox="0 0 62 53" fill="none" xmlns="http://www.w3.org/2000/svg">
<path d="M59.0654 41.582C57.999 41.1602 56.8311 40.8438 55.6123 40.5801C53.7842 40.1582 51.8037 39.8945 49.8232 39.7363L49.7725 39.7891V39.3145C51.8037 38.6816 53.7334 37.5215 55.3076 35.8867C56.7295 34.4102 57.8975 32.5117 58.6592 30.1914C58.8623 30.1387 59.0146 29.9805 59.167 29.8223C60.5889 28.3457 61.3506 23.5469 60.8936 22.8613C61.0967 21.543 61.8076 15.5312 59.8779 10.1523C59.8272 10.0469 59.7764 9.88867 59.7256 9.7832C59.624 9.51953 59.5225 9.30859 59.4209 9.04492C59.167 8.46484 58.8623 7.88477 58.5576 7.30469C58.5068 7.19922 58.4053 7.09375 58.3545 6.93555C58.0498 6.51367 57.7451 6.03906 57.4404 5.66992C57.2881 5.45898 57.085 5.24805 56.9326 5.03711C54.6525 2.56387 51.2045 0.823633 46.04 0.818359C40.8807 0.823633 38.4432 2.56387 36.1631 5.03711C36.0107 5.24805 35.8076 5.45898 35.6553 5.66992C35.3506 6.03906 35.0459 6.51367 34.7412 6.93555C34.6904 7.09375 34.5889 7.19922 34.5381 7.30469C34.2334 7.88477 33.9287 8.46484 33.6748 9.04492C33.5732 9.30859 33.4717 9.51953 33.3701 9.7832C33.3193 9.88867 33.2686 10.0469 33.2178 10.1523C31.2881 15.5312 31.999 21.543 32.2022 22.8613C31.7451 23.5469 32.5068 28.3457 33.9287 29.8223C34.0811 29.9805 34.2334 30.1387 34.4365 30.1914C35.1982 32.5117 36.3662 34.4102 37.7881 35.8867C39.3623 37.5215 40.2764 38.6816 42.3076 39.3145V39.7891C37.9404 40.1529 33.8221 41.1549 30.6889 42.7896C29.3025 43.5121 28.1092 44.3559 27.1748 45.3262C25.8037 46.75 24.9912 48.4375 24.9912 50.4414V52.1816H36.0412H61.4623V42.642C60.7107 42.2518 59.9084 41.8984 59.0654 41.582Z" fill="#1798F3"/>
<path d="M30.6842 42.7896C29.8615 42.3414 28.9678 41.9354 28.0131 41.582C26.9467 41.1602 25.7787 40.8438 24.56 40.5801C22.7318 40.1582 20.7514 39.8945 18.7709 39.7363L18.7201 39.7891V39.3145C20.7514 38.6816 22.6811 37.5215 24.2553 35.8867C25.6771 34.4102 26.8451 32.5117 27.6068 30.1914C27.81 30.1387 27.9623 29.9805 28.1146 29.8223C29.5365 28.3457 30.2982 23.5469 29.8412 22.8613C30.0443 21.543 30.7553 15.5312 28.8256 10.1523C28.7748 10.0469 28.724 9.88867 28.6732 9.7832C28.5717 9.51953 28.4701 9.30859 28.3686 9.04492C28.1146 8.46484 27.81 7.88477 27.5053 7.30469C27.4545 7.19922 27.3529 7.09375 27.3021 6.93555C26.9975 6.51367 26.6928 6.03906 26.3881 5.66992C26.2357 5.45898 26.0326 5.24805 25.8803 5.03711C23.6002 2.56387 20.1521 0.823633 14.9877 0.818359C9.82832 0.823633 7.39082 2.56387 5.11074 5.03711C4.9584 5.24805 4.75527 5.45898 4.60293 5.66992C4.29824 6.03906 3.99355 6.51367 3.68887 6.93555C3.63809 7.09375 3.53652 7.19922 3.48574 7.30469C3.18105 7.88477 2.87637 8.46484 2.62246 9.04492C2.5209 9.30859 2.41934 9.51953 2.31777 9.7832C2.26699 9.88867 2.21621 10.0469 2.16543 10.1523C0.235742 15.5312 0.94668 21.543 1.1498 22.8613C0.692773 23.5469 1.45449 28.3457 2.87637 29.8223C3.02871 29.9805 3.18105 30.1387 3.38418 30.1914C4.1459 32.5117 5.31387 34.4102 6.73574 35.8867C8.30996 37.5215 9.22402 38.6816 11.2553 39.3145V39.7891C7.24863 40.1266 3.44512 40.9967 0.428711 42.3994V52.1816H24.9865H36.0365V50.4414C36.0416 47.04 33.9088 44.5457 30.6842 42.7896Z" fill="#1976D2"/>
</svg>
