<svg width="41" height="48" viewBox="0 0 41 48" fill="none" xmlns="http://www.w3.org/2000/svg">
<path d="M27.8861 44.243C27.8861 41.5984 27.5971 23.5477 27.5971 23.5477C27.5971 22.1102 27.558 21.8445 28.0854 22.243C28.6127 22.6414 29.1322 24.157 32.8744 25.1649C35.6752 25.9188 39.1908 24.7703 40.0971 23.0594C40.4994 22.3016 40.5697 20.7352 39.2611 20.1531C38.0072 19.5945 35.4838 19.5359 33.3744 17.9383C30.7924 15.9813 30.6947 14.3563 29.0385 11.3328C27.7143 8.91876 24.476 7.05548 23.7807 5.71954C23.2768 4.75079 23.3002 3.51251 23.351 2.26642C23.3705 1.78986 23.058 1.36407 22.5932 1.24689C21.4838 0.969544 19.1635 0.547668 15.2885 0.547668C11.4604 0.547668 9.15177 0.957825 8.02677 1.23517C7.5463 1.35236 7.22208 1.80157 7.26896 2.29376C7.39396 3.60626 7.56583 5.00861 7.18302 6.0047C6.65567 7.37579 4.91349 9.27814 3.49161 11.6766C0.167392 17.2899 0.538487 23.1922 0.819737 26.575C1.03849 29.1922 2.66349 32.4813 4.81583 32.9695C5.91739 33.2195 6.69083 32.9383 7.49552 32.2703C7.68302 32.1141 7.96817 32.2508 8.04239 32.4813C8.36661 33.4813 9.0463 35.0203 11.0932 35.157C12.765 35.2703 13.4721 34.2899 14.0619 33.7586C14.2377 33.5985 14.4252 33.7313 14.4994 33.9578C14.8236 34.9149 16.0229 36.575 17.8471 36.5164C19.9604 36.45 20.7494 33.9656 21.1283 33.661C21.5072 33.3602 21.6791 34.8719 21.6947 35.0985C21.6947 35.0985 22.1557 40.95 22.5697 43.4695C22.9604 45.8563 23.5932 48.0828 25.9096 47.6766C26.8979 47.5047 27.8861 46.8875 27.8861 44.243Z" fill="#FFDD67"/>
<path d="M20.3747 29.9657C20.3747 29.9657 19.9919 31.0438 18.1012 31.1336C16.2809 31.2196 15.6247 29.7508 14.7028 29.5907C13.4489 29.3719 13.3005 30.2664 11.5583 30.1727C9.88639 30.0829 9.55827 28.9539 8.37858 28.7938C7.62468 28.6883 6.96061 29.5008 5.14421 29.3563C4.3903 29.2977 2.29264 28.5868 1.66764 27.1883C1.43717 26.6688 0.632487 26.118 1.13249 28.2586C1.5153 29.8954 2.80046 32.4735 4.7653 32.9579C4.78483 32.9618 4.80046 32.9657 4.81999 32.9696C5.92155 33.2196 6.69499 32.9383 7.49968 32.2704C7.68718 32.1141 7.97233 32.2508 8.04655 32.4813C8.37077 33.4813 9.05046 35.0204 11.0973 35.1571C12.7692 35.2704 13.4762 34.2899 14.0661 33.7586C14.2419 33.5985 14.4294 33.7313 14.5036 33.9579C14.8278 34.9149 16.027 36.575 17.8512 36.5164C19.9645 36.45 20.7614 34.8407 21.1325 33.6649C21.1637 33.5829 20.8083 30.4735 20.3747 29.9657Z" fill="#FFB300"/>
<path d="M28.3662 22.5516C28.3662 22.5516 26.6592 20.0789 26.6592 21.6414C26.6592 22.5164 27.374 43.2273 27.1592 45.0672C26.8857 47.3992 25.1592 47.7195 25.1592 47.7195C25.1592 47.7195 27.8467 48.1492 28.3779 44.868C28.7725 42.4227 28.2295 24.868 28.3662 22.5516Z" fill="#EDA600"/>
<path d="M13.4756 30.2274C13.4053 29.286 13.6475 28.8915 14.1748 28.7938C14.7021 28.6961 14.9131 29.2664 14.9209 30.3368C14.9404 33.3289 13.9404 34.6922 12.0029 35.0711C12.0029 35.0672 13.7607 34.0829 13.4756 30.2274Z" fill="#EDA600"/>
<path d="M6.78418 29.3094C6.71387 28.368 7.07325 27.9813 7.60059 27.8797C8.12793 27.7781 8.43653 28.5633 8.4209 29.6336C8.36622 32.8875 6.65918 33.1961 4.96778 33.0477C4.96387 33.0555 7.06934 33.1688 6.78418 29.3094Z" fill="#EDA600"/>
<path d="M19.874 30.7937C19.8428 29.9422 20.1592 29.4578 20.7725 29.3914C21.3857 29.325 21.5459 29.9852 21.5889 30.618C21.8232 34.1063 20.3779 36.3289 18.2412 36.4813C18.2412 36.4813 20.0459 35.2312 19.874 30.7937Z" fill="#EDA600"/>
<path d="M23.7763 5.71954C23.2724 4.75079 23.2959 3.51251 23.3467 2.26642C23.3623 1.93048 23.206 1.62189 22.956 1.42657C22.956 1.42657 21.8623 4.1297 22.7412 6.25861C23.1748 7.3172 24.0263 8.02814 24.9443 8.95001C26.1709 10.1883 27.6162 10.3406 29.0927 14.0789C29.8427 15.9813 30.6123 17.2352 32.167 18.6258C34.0146 20.282 36.6865 20.6883 37.8076 20.6141C38.6513 20.5594 39.8427 20.4109 39.2607 20.1531C38.0068 19.5945 35.4834 19.5359 33.374 17.9383C30.792 15.9813 30.6982 14.3563 29.0381 11.3289C27.7138 8.91486 24.4756 7.05548 23.7763 5.71954Z" fill="#EDA600"/>
</svg>
