<svg width="40" height="36" viewBox="0 0 40 36" fill="none" xmlns="http://www.w3.org/2000/svg">
<path d="M9.401 27.8773C9.06763 27.8169 8.80093 27.7565 8.46756 27.6358C8.13419 27.5151 7.8675 27.4547 7.6008 27.334C7.00074 27.0925 6.46735 26.7907 5.93396 26.4285C4.86718 25.7644 4.00042 24.859 3.33369 23.7724C2.66695 22.7461 2.26691 21.5388 2.20023 20.3919C2.13356 19.7882 2.20023 19.2449 2.26691 18.6412C2.33358 18.3394 2.40025 18.0979 2.46693 17.7961C2.5336 17.4943 2.66695 17.2528 2.73362 16.951L2.8003 17.7961C2.8003 18.0979 2.86697 18.3394 2.93364 18.6412C3.00032 19.1845 3.13367 19.7278 3.26701 20.2108C3.53371 21.237 3.93375 22.2028 4.53381 23.1083C5.13388 24.0138 5.80061 24.859 6.66737 25.6437C7.06741 26.0059 7.53413 26.3681 8.00085 26.7303C8.20087 26.9114 8.46756 27.0925 8.73426 27.2736L9.401 27.8773ZM9.20097 30.0504C9.00095 30.1712 8.73426 30.2315 8.46756 30.2919C8.20087 30.3523 8.00085 30.4126 7.73415 30.4126C7.26744 30.473 6.73405 30.5334 6.20066 30.473C5.20055 30.4126 4.13377 30.1712 3.26701 29.7486C2.33358 29.3261 1.5335 28.662 1.00011 27.8773C0.733411 27.5151 0.466716 27.0925 0.266695 26.6699C0.200021 26.4888 0.133347 26.2474 0.0666737 26.0059C0.0666737 25.8248 0 25.6437 0 25.4023C0.200021 25.5833 0.333369 25.7644 0.466716 25.8852C0.666737 26.0663 0.800085 26.2474 0.933432 26.3681C1.2668 26.6699 1.5335 26.9718 1.86686 27.2132C2.5336 27.7565 3.20034 28.2395 4.00042 28.6017C4.73383 28.9639 5.60059 29.2657 6.40068 29.5072C6.80072 29.6279 7.26744 29.6883 7.73415 29.809C7.93417 29.8694 8.20087 29.8694 8.40089 29.9297C8.73426 29.9901 8.93428 29.9901 9.20097 30.0504ZM24.2692 0.712458C24.6026 0.772824 24.8693 0.893557 25.2027 1.01429C25.536 1.13502 25.8027 1.25575 26.0694 1.37649C26.6695 1.67832 27.2029 1.98015 27.7363 2.34235C28.803 3.06674 29.6698 4.0326 30.2699 5.11919C30.8699 6.20579 31.2033 7.41311 31.2033 8.56007C31.2033 9.16373 31.1366 9.70703 31.0033 10.3107C30.9366 10.6125 30.8699 10.854 30.7366 11.1558C30.6032 11.4576 30.5366 11.6991 30.4032 11.9406L30.3365 11.0955C30.3365 10.7936 30.3365 10.5522 30.2699 10.2503L30.0698 8.62044C29.8698 7.59421 29.4698 6.56798 28.9364 5.60212C28.403 4.63626 27.7363 3.79114 26.9362 3.00638C26.5361 2.58381 26.0694 2.22161 25.6694 1.79905C25.4694 1.61795 25.2027 1.43685 24.936 1.25575L24.2692 0.712458ZM30.0698 0.470993C30.3365 0.531359 30.5366 0.591726 30.7366 0.712458C30.9366 0.772824 31.2033 0.893557 31.4033 1.01429C31.8034 1.25575 32.2034 1.49722 32.6035 1.79905C33.3369 2.40271 33.9369 3.12711 34.2703 3.97223C34.6703 4.81736 34.8037 5.72286 34.6703 6.62835C34.6037 7.05091 34.4703 7.47348 34.337 7.89604C34.2703 8.07714 34.1369 8.3186 34.0703 8.4997C33.9369 8.6808 33.8703 8.8619 33.6702 9.043V8.43934V7.83567C33.6702 7.41311 33.6036 7.05091 33.6036 6.68872C33.4702 5.90395 33.3369 5.17956 33.0035 4.51553C32.6701 3.79114 32.2701 3.18747 31.8034 2.52345C31.5367 2.22161 31.27 1.85942 31.0033 1.55759C30.8699 1.37649 30.7366 1.25575 30.5366 1.07466C30.4032 0.772824 30.2032 0.591726 30.0698 0.470993Z" fill="#42ADE2"/>
<path d="M5.33487 9.46549C4.00139 10.0088 3.53468 11.4576 4.13474 12.6649L12.5356 28.5412L17.2028 26.5491L8.8019 10.6124C8.20184 9.40512 6.66834 8.86182 5.33487 9.46549ZM27.4039 22.082L32.3377 19.9692L22.7367 1.85934C22.07 0.652017 20.4698 0.108721 19.0697 0.712383C17.7362 1.31605 17.1361 2.76484 17.8029 4.03253L27.4039 22.082Z" fill="#FFDD67"/>
<path d="M19.1334 0.651418C19.0001 0.711784 18.8667 0.77215 18.7334 0.892883C20.0002 0.591052 21.3337 1.13435 21.9337 2.22094L31.5348 20.3308L32.4015 19.9686L22.8005 1.85874C22.1338 0.591052 20.5336 0.0477556 19.1334 0.651418Z" fill="#EBA352"/>
<path d="M17.2004 26.4874L22.3342 24.2538L12.5332 5.78174C11.8665 4.51405 10.133 3.91038 8.73281 4.51405C7.33266 5.11771 6.73259 6.68723 7.39933 7.95492L17.2004 26.4874Z" fill="#FFDD67"/>
<path d="M8.73793 4.57522C8.60459 4.63558 8.47124 4.69595 8.33789 4.81668C9.60469 4.51485 11.0715 5.05815 11.6716 6.20511L17.7389 17.7351L19.2057 18.5198L12.5383 5.84291C11.8716 4.51485 10.2048 3.97156 8.73793 4.57522Z" fill="#EBA352"/>
<path d="M21.5344 22.8054L26.6682 20.5719L16.8672 2.0998C16.2005 0.832108 14.4669 0.228446 13.0668 0.892474C11.6666 1.49614 11.0666 3.06566 11.7333 4.33335L21.5344 22.8054Z" fill="#FFDD67"/>
<path d="M13.0697 0.832542C12.9364 0.892908 12.803 1.01364 12.6697 1.07401C13.9365 0.772175 15.4033 1.31547 16.0034 2.46243L22.8708 15.5015L24.3376 16.2863L16.8701 2.10023C16.2034 0.772176 14.4699 0.228879 13.0697 0.832542ZM5.33559 9.46491C5.20224 9.52528 5.06889 9.58565 4.93555 9.70638C6.13567 9.40455 7.40248 9.94784 7.93587 11.0344L12.9364 20.5119L14.4032 21.2967L8.80262 10.6722C8.20256 9.40455 6.66906 8.86125 5.33559 9.46491Z" fill="#EBA352"/>
<path d="M39.204 7.65391C37.4038 6.38622 34.4701 7.77464 33.0033 12.121C32.0032 15.1393 31.8699 16.0448 29.7363 16.9503L28.5362 14.7168C28.5362 14.7168 9.60083 22.9869 10.3342 24.315C10.3342 24.315 12.6012 30.7138 16.4682 33.6718C22.2022 38.1389 35.6036 33.3699 36.2037 21.84C36.537 15.1393 41.1375 9.04233 39.204 7.65391Z" fill="#FFDD67"/>
<path d="M39.2051 7.65321C38.8717 7.41174 38.4717 7.29101 38.0716 7.23064C38.1383 7.29101 38.2717 7.29101 38.3383 7.35138C40.3385 8.7398 38.2717 11.9392 37.1382 14.8368C36.2048 17.1307 35.4047 19.485 35.538 21.7789C36.0714 31.7997 24.9369 36.5686 18.2695 34.7576C24.8036 37.2327 36.9382 32.5241 36.4048 22.0807C36.2714 19.7868 37.0049 17.5533 38.005 15.1386C39.0717 12.241 41.1386 9.04163 39.2051 7.65321Z" fill="#EBA352"/>
<path d="M30.3354 16.7087C26.2016 17.1312 20.1343 22.5038 24.4015 28.3594C21.2678 22.4435 26.4017 18.4593 29.6687 17.0709C30.0021 16.8294 30.3354 16.7087 30.3354 16.7087Z" fill="#EBA352"/>
</svg>
