<svg width="67" height="55" viewBox="0 0 67 55" fill="none" xmlns="http://www.w3.org/2000/svg">
<path d="M15.9736 43.171C15.4235 43.0761 14.9835 42.9813 14.4334 42.7916C13.8833 42.6018 13.4433 42.507 13.0032 42.3172C12.0131 41.9378 11.133 41.4635 10.253 40.8943C8.49276 39.8509 7.06261 38.4279 5.9625 36.7204C4.86238 35.1078 4.20231 33.2106 4.0923 31.4082C3.98229 30.4596 4.0923 29.6058 4.20231 28.6572C4.31232 28.1829 4.42233 27.8035 4.53234 27.3292C4.64236 26.8549 4.86238 26.4754 4.97239 26.0011L5.0824 27.3292C5.0824 27.8035 5.19242 28.1829 5.30243 28.6572C5.41244 29.511 5.63246 30.3647 5.85249 31.1236C6.29253 32.7363 6.9526 34.254 7.94271 35.677C8.93281 37.0999 10.0329 38.4279 11.4631 39.6611C12.1231 40.2303 12.8932 40.7995 13.6633 41.3686C13.9933 41.6532 14.4334 41.9378 14.8734 42.2224L15.9736 43.171ZM15.6435 46.586C15.3135 46.7757 14.8734 46.8706 14.4334 46.9655C13.9933 47.0603 13.6633 47.1552 13.2233 47.1552C12.4532 47.25 11.5731 47.3449 10.693 47.25C9.04282 47.1552 7.28264 46.7757 5.85249 46.1117C4.31232 45.4477 2.99218 44.4042 2.11209 43.171C1.67204 42.6018 1.232 41.9378 0.901961 41.2738C0.791949 40.9892 0.681937 40.6098 0.571926 40.2303C0.571926 39.9457 0.461914 39.6611 0.461914 39.2817C0.791949 39.5663 1.01197 39.8509 1.232 40.0406C1.56203 40.3252 1.78205 40.6097 2.00208 40.7995C2.55214 41.2738 2.99218 41.7481 3.54224 42.1275C4.64236 42.9813 5.74247 43.7402 7.06261 44.3093C8.27274 44.8785 9.70289 45.3528 11.023 45.7323C11.6831 45.922 12.4532 46.0168 13.2233 46.2066C13.5533 46.3014 13.9933 46.3014 14.3234 46.3963C14.8734 46.4911 15.2035 46.4911 15.6435 46.586ZM40.5062 0.483449C41.0562 0.57831 41.4963 0.768033 42.0463 0.957755C42.5964 1.14748 43.0364 1.3372 43.4765 1.52692C44.4666 2.00123 45.3467 2.47553 46.2268 3.0447C47.9869 4.18304 49.4171 5.70082 50.4072 7.40832C51.3973 9.11582 51.9474 11.013 51.9474 12.8154C51.9474 13.764 51.8374 14.6178 51.6173 15.5664C51.5073 16.0407 51.3973 16.4201 51.1773 16.8944C50.9573 17.3687 50.8472 17.7482 50.6272 18.1276L50.5172 16.7996C50.5172 16.3253 50.5172 15.9458 50.4072 15.4715L50.0772 12.9103C49.7471 11.2976 49.0871 9.68499 48.207 8.16721C47.3269 6.64943 46.2268 5.32137 44.9066 4.08818C44.2466 3.42415 43.4765 2.85498 42.8164 2.19095C42.4864 1.90637 42.0463 1.62178 41.6063 1.3372L40.5062 0.483449ZM50.0772 0.104004C50.5172 0.198865 50.8472 0.293726 51.1773 0.483449C51.5073 0.57831 51.9474 0.768033 52.2774 0.957755C52.9375 1.3372 53.5975 1.71665 54.2576 2.19095C55.4677 3.13956 56.4578 4.2779 57.0079 5.60595C57.668 6.93401 57.888 8.35693 57.668 9.77985C57.558 10.4439 57.3379 11.1079 57.1179 11.7719C57.0079 12.0565 56.7879 12.436 56.6779 12.7205C56.4578 13.0051 56.3478 13.2897 56.0178 13.5743V12.6257V11.6771C56.0178 11.013 55.9078 10.4439 55.9078 9.87471C55.6878 8.64151 55.4677 7.50318 54.9177 6.45971C54.3676 5.32137 53.7076 4.37276 52.9375 3.32929C52.4974 2.85498 52.0574 2.28581 51.6173 1.81151C51.3973 1.52692 51.1773 1.3372 50.8472 1.05262C50.6272 0.57831 50.2972 0.293726 50.0772 0.104004Z" fill="#42ADE2"/>
<path d="M9.26493 14.2382C7.0647 15.092 6.29462 17.3686 7.28472 19.2659L21.1462 44.2144L28.847 41.0839L14.9855 16.0406C13.9954 14.1433 11.4652 13.2896 9.26493 14.2382ZM45.6788 34.0642L53.8196 30.7441L37.978 2.28569C36.8779 0.388467 34.2376 -0.465284 31.9273 0.483328C29.7271 1.43194 28.737 3.70861 29.8371 5.7007L45.6788 34.0642Z" fill="#FFDD67"/>
<path d="M32.0321 0.38753C31.8121 0.482391 31.5921 0.577252 31.3721 0.766975C33.4623 0.292669 35.6625 1.14642 36.6526 2.85392L52.4943 31.3123L53.9245 30.7431L38.0828 2.28475C36.9827 0.292669 34.3424 -0.561082 32.0321 0.38753Z" fill="#EBA352"/>
<path d="M28.8418 40.9869L37.3127 37.477L21.141 8.44946C20.0409 6.45738 17.1806 5.50877 14.8704 6.45738C12.5601 7.40599 11.57 9.87238 12.6701 11.8645L28.8418 40.9869Z" fill="#FFDD67"/>
<path d="M14.8788 6.5535C14.6588 6.64836 14.4388 6.74322 14.2188 6.93295C16.309 6.45864 18.7292 7.31239 19.7193 9.11475L29.7304 27.2333L32.1506 28.4664L21.1495 8.54559C20.0494 6.45864 17.2991 5.60489 14.8788 6.5535Z" fill="#EBA352"/>
<path d="M35.9932 35.201L44.4641 31.6911L28.2924 2.66355C27.1923 0.671469 24.332 -0.277144 22.0217 0.76633C19.7115 1.71494 18.7214 4.18133 19.8215 6.17342L35.9932 35.201Z" fill="#FFDD67"/>
<path d="M22.0269 0.672152C21.8069 0.767013 21.5868 0.956735 21.3668 1.0516C23.457 0.577291 25.8773 1.43104 26.8674 3.23341L38.1986 23.7234L40.6189 24.9566L28.2976 2.66424C27.1974 0.577291 24.3371 -0.27646 22.0269 0.672152ZM9.26554 14.2373C9.04552 14.3322 8.82549 14.427 8.60547 14.6168C10.5857 14.1424 12.6759 14.9962 13.556 16.7037L21.8069 31.5969L24.2271 32.8301L14.9861 16.1345C13.996 14.1424 11.4658 13.2887 9.26554 14.2373Z" fill="#EBA352"/>
<path d="M65.1488 11.3915C62.1785 9.39936 57.338 11.5812 54.9177 18.4112C53.2676 23.1542 53.0475 24.5772 49.5272 26.0001L47.5469 22.4902C47.5469 22.4902 16.3036 35.4862 17.5138 37.5731C17.5138 37.5731 21.2542 47.6284 27.6348 52.2766C37.0958 59.2964 59.2082 51.8023 60.1983 33.6838C60.7483 23.1542 68.3391 13.5733 65.1488 11.3915Z" fill="#FFDD67"/>
<path d="M65.1501 11.3903C64.6 11.0109 63.94 10.8212 63.2799 10.7263C63.3899 10.8212 63.6099 10.8212 63.72 10.916C67.0203 13.0978 63.6099 18.1255 61.7397 22.6788C60.1996 26.2836 58.8794 29.9831 59.0995 33.5879C59.9796 49.3348 41.6076 56.8289 30.6064 53.983C41.3876 57.8723 61.4097 50.4732 60.5296 34.0622C60.3096 30.4575 61.5197 26.9476 63.1699 23.1531C64.9301 18.5998 68.3404 13.5722 65.1501 11.3903Z" fill="#EBA352"/>
<path d="M50.5159 25.6204C43.6952 26.2844 33.6842 34.727 40.7249 43.9286C35.5544 34.6322 44.0253 28.3713 49.4158 26.1895C49.9659 25.8101 50.5159 25.6204 50.5159 25.6204Z" fill="#EBA352"/>
</svg>
