<svg width="63" height="47" viewBox="0 0 63 47" fill="none" xmlns="http://www.w3.org/2000/svg">
<path d="M60.5979 0.5H2.68917C1.45722 0.5 0.461914 1.43437 0.461914 2.59091V44.4091C0.461914 45.5656 1.45722 46.5 2.68917 46.5H60.5979C61.8298 46.5 62.8251 45.5656 62.8251 44.4091V2.59091C62.8251 1.43437 61.8298 0.5 60.5979 0.5ZM57.8138 7.73977V41.7955H5.47324V7.73977L3.55223 6.33494L6.28759 3.03523L9.26654 5.21108H54.0275L57.0064 3.03523L59.7418 6.33494L57.8138 7.73977ZM54.0275 5.20455L31.6435 21.5398L9.25958 5.20455L6.28063 3.02869L3.54527 6.32841L5.46628 7.73324L29.2423 25.0878C29.926 25.5865 30.7672 25.8572 31.6331 25.8572C32.4989 25.8572 33.3401 25.5865 34.0239 25.0878L57.8138 7.73977L59.7348 6.33494L56.9995 3.03523L54.0275 5.20455Z" fill="black"/>
</svg>
