<svg width="40" height="31" viewBox="0 0 40 31" fill="none" xmlns="http://www.w3.org/2000/svg">
<path d="M38.5714 0.904808H1.42857C0.638393 0.904808 0 1.51418 0 2.26844V29.5412C0 30.2954 0.638393 30.9048 1.42857 30.9048H38.5714C39.3616 30.9048 40 30.2954 40 29.5412V2.26844C40 1.51418 39.3616 0.904808 38.5714 0.904808ZM36.7857 5.6264V27.8366H3.21429V5.6264L1.98214 4.71021L3.73661 2.55822L5.64732 3.97725H34.3571L36.2679 2.55822L38.0223 4.71021L36.7857 5.6264ZM34.3571 3.97299L20 14.6264L5.64286 3.97299L3.73214 2.55396L1.97768 4.70594L3.20982 5.62214L18.4598 16.9403C18.8984 17.2655 19.4379 17.4421 19.9933 17.4421C20.5487 17.4421 21.0882 17.2655 21.5268 16.9403L36.7857 5.6264L38.0179 4.71021L36.2634 2.55822L34.3571 3.97299Z" fill="black"/>
</svg>
